<svg width="25" height="24" viewBox="0 0 25 24" fill="none" xmlns="http://www.w3.org/2000/svg">
<path d="M20.9 1.2002H4.09995C2.77995 1.2002 1.69995 2.2802 1.69995 3.6002V20.4002C1.69995 21.7214 2.77995 22.8002 4.09995 22.8002H12.5V14.4002H10.1V11.4302H12.5V8.9702C12.5 6.3734 13.9544 4.5494 17.0192 4.5494L19.1828 4.5518V7.6778H17.7464C16.5536 7.6778 16.1 8.573 16.1 9.4034V11.4314H19.1816L18.5 14.4002H16.1V22.8002H20.9C22.22 22.8002 23.3 21.7214 23.3 20.4002V3.6002C23.3 2.2802 22.22 1.2002 20.9 1.2002Z" fill="#E6E6E6"/>
</svg>
