<svg width="25" height="24" viewBox="0 0 25 24" fill="none" xmlns="http://www.w3.org/2000/svg">
<path d="M12.5 8.75C11.638 8.75 10.8114 9.09241 10.2019 9.7019C9.59241 10.3114 9.25 11.138 9.25 12C9.25 12.862 9.59241 13.6886 10.2019 14.2981C10.8114 14.9076 11.638 15.25 12.5 15.25C13.362 15.25 14.1886 14.9076 14.7981 14.2981C15.4076 13.6886 15.75 12.862 15.75 12C15.75 11.138 15.4076 10.3114 14.7981 9.7019C14.1886 9.09241 13.362 8.75 12.5 8.75Z" fill="#E6E6E6"/>
<path fill-rule="evenodd" clip-rule="evenodd" d="M7.27012 3.08177C10.7462 2.6967 14.2541 2.6967 17.7301 3.08177C19.6291 3.29377 21.1601 4.78877 21.3831 6.69477C21.7951 10.2194 21.7951 13.7801 21.3831 17.3048C21.1601 19.2108 19.6291 20.7058 17.7311 20.9188C14.2548 21.3039 10.7465 21.3039 7.27012 20.9188C5.37112 20.7058 3.84012 19.2108 3.61712 17.3058C3.2051 13.7808 3.2051 10.2198 3.61712 6.69477C3.84012 4.78877 5.37112 3.29377 7.27012 3.08177ZM17.5001 5.99977C17.2349 5.99977 16.9805 6.10513 16.793 6.29267C16.6055 6.4802 16.5001 6.73456 16.5001 6.99977C16.5001 7.26499 16.6055 7.51934 16.793 7.70688C16.9805 7.89441 17.2349 7.99977 17.5001 7.99977C17.7653 7.99977 18.0197 7.89441 18.2072 7.70688C18.3948 7.51934 18.5001 7.26499 18.5001 6.99977C18.5001 6.73456 18.3948 6.4802 18.2072 6.29267C18.0197 6.10513 17.7653 5.99977 17.5001 5.99977ZM7.75012 11.9998C7.75012 10.74 8.25056 9.53181 9.14136 8.64102C10.0322 7.75022 11.2403 7.24977 12.5001 7.24977C13.7599 7.24977 14.9681 7.75022 15.8589 8.64102C16.7497 9.53181 17.2501 10.74 17.2501 11.9998C17.2501 13.2596 16.7497 14.4677 15.8589 15.3585C14.9681 16.2493 13.7599 16.7498 12.5001 16.7498C11.2403 16.7498 10.0322 16.2493 9.14136 15.3585C8.25056 14.4677 7.75012 13.2596 7.75012 11.9998Z" fill="#E6E6E6"/>
</svg>
