<svg width="25" height="24" viewBox="0 0 25 24" fill="none" xmlns="http://www.w3.org/2000/svg">
<g clip-path="url(#clip0_790_181)">
<path fill-rule="evenodd" clip-rule="evenodd" d="M20.2769 4.42997C20.524 4.32596 20.7945 4.29008 21.0602 4.32608C21.3259 4.36208 21.5771 4.46863 21.7876 4.63465C21.9981 4.80067 22.1603 5.02008 22.2573 5.27005C22.3542 5.52002 22.3824 5.79141 22.3389 6.05597L20.0709 19.813C19.8509 21.14 18.3949 21.901 17.1779 21.24C16.1599 20.687 14.6479 19.835 13.2879 18.946C12.6079 18.501 10.5249 17.076 10.7809 16.062C11.0009 15.195 14.5009 11.937 16.5009 9.99997C17.2859 9.23897 16.9279 8.79997 16.0009 9.49997C13.6989 11.238 10.0029 13.881 8.7809 14.625C7.7029 15.281 7.1409 15.393 6.4689 15.281C5.2429 15.077 4.1059 14.761 3.1779 14.376C1.9239 13.856 1.9849 12.132 3.1769 11.63L20.2769 4.42997Z" fill="#E6E6E6"/>
</g>
<defs>
<clipPath id="clip0_790_181">
<rect width="24" height="24" fill="white" transform="translate(0.5)"/>
</clipPath>
</defs>
</svg>
